<svg width="500" height="500" version="1.1" xmlns="http://www.w3.org/2000/svg" desc="Created with imagetracer.js version 1.2.6" ><path fill="rgb(0,0,0)" stroke="rgb(0,0,0)" stroke-width="1" opacity="0" d="M 0 0 L 500 0 L 500 500 L 0 500 L 0 0 Z M 301 136 L 282 141 Q 269 146 260 155 Q 249 165 242 180 L 238 191 L 235 207 L 235 214 L 237 214 L 249 194 L 257 184 L 274 170 L 284 166 L 295 165 L 296 164 L 314 166 L 323 170 L 334 178 L 343 193 L 344 204 L 345 205 L 341 221 L 335 229 L 329 233 L 321 235 L 294 235 L 290 236 Q 279 240 272 246 L 263 256 Q 264 258 261 257 L 250 275 L 237 286 L 227 291 L 212 294 L 198 293 L 185 286 L 180 277 L 180 216 L 179 214 L 142 214 L 139 215 L 139 281 L 143 297 L 151 309 L 153 312 L 165 321 L 176 326 L 188 329 L 207 329 L 224 325 Q 240 320 251 308 L 254 306 L 267 290 Q 266 287 269 288 L 273 281 L 285 271 L 326 271 L 343 267 L 358 259 L 372 243 L 379 227 L 380 214 L 381 213 L 379 194 L 377 187 L 370 172 L 360 158 L 351 151 Q 348 152 349 149 Q 339 142 326 138 L 316 136 L 301 136 Z M 101 171 L 99 173 L 99 210 L 101 211 L 214 211 L 215 210 L 215 173 L 214 171 L 101 171 Z M 278 192 L 268 195 L 258 201 L 244 216 L 233 234 Q 234 236 231 235 L 223 248 L 223 250 L 204 278 L 197 283 Q 194 284 196 286 L 195 285 L 194 287 L 205 289 L 224 288 L 236 282 L 245 273 L 258 253 Q 257 249 260 250 L 277 222 L 294 211 Q 299 212 302 209 L 330 209 L 329 205 L 324 198 L 319 192 L 278 192 Z M 296 275 L 293 277 L 307 294 Q 306 296 309 295 L 311 300 L 332 324 L 335 327 L 371 327 Q 372 322 367 321 Q 368 318 365 319 L 359 311 Q 360 308 357 309 L 355 306 Q 356 303 353 304 L 340 287 Q 341 284 338 285 L 334 279 L 332 276 L 328 275 L 296 275 Z M 163 341 L 161 343 L 161 365 L 166 365 L 167 360 L 172 365 L 176 365 L 176 363 L 171 357 L 172 355 Q 171 352 174 353 L 174 351 L 176 351 Q 178 346 172 348 L 166 353 L 166 342 L 163 341 Z M 188 341 L 184 346 Q 185 349 182 348 Q 181 354 184 354 L 184 365 L 189 365 L 189 353 L 193 353 Q 195 346 189 348 Q 188 344 194 346 L 195 343 Q 194 340 188 341 Z M 199 341 L 197 343 L 197 362 L 198 364 L 202 366 Q 205 367 206 365 L 205 361 L 203 361 L 203 342 Q 203 341 199 341 Z M 110 343 L 110 347 L 115 348 L 115 365 L 120 365 L 120 347 L 127 347 L 127 343 L 110 343 Z M 264 343 L 264 365 Q 268 366 269 364 Q 267 356 271 357 L 274 364 Q 275 366 280 365 L 277 358 L 280 352 L 279 347 L 276 343 L 264 343 Z M 356 344 Q 358 349 354 348 Q 353 354 356 354 L 356 364 Q 358 366 365 365 L 366 361 Q 362 362 361 360 L 361 353 L 365 353 L 365 348 Q 359 350 361 344 L 356 344 Z M 130 348 Q 127 349 128 353 L 134 352 L 136 354 L 127 356 L 126 360 L 127 364 L 130 365 L 141 365 L 140 351 Q 138 346 130 348 Z M 148 348 Q 144 349 145 356 Q 147 359 152 359 L 153 361 L 148 360 Q 143 359 145 364 Q 148 366 155 365 Q 159 364 158 359 L 153 354 L 150 354 L 151 352 L 156 353 L 157 351 Q 155 346 148 348 Z M 213 348 L 209 350 L 208 353 Q 207 359 209 363 L 213 365 L 222 364 L 224 362 L 224 352 Q 222 346 213 348 Z M 228 348 L 226 350 L 231 364 Q 230 366 235 365 L 237 362 Q 236 358 239 359 L 240 364 Q 241 366 245 365 L 250 354 Q 252 346 246 348 L 244 356 L 241 350 L 238 348 L 234 356 L 231 350 Q 232 347 228 348 Z M 288 348 Q 281 350 283 362 L 288 365 Q 295 366 298 364 L 297 360 L 290 361 L 289 359 L 299 359 L 299 353 Q 297 346 288 348 Z M 305 348 L 302 351 L 302 370 L 304 371 L 307 371 L 307 365 Q 315 367 318 362 L 318 352 L 315 348 Q 308 346 307 349 L 305 348 Z M 326 348 L 322 350 L 320 356 L 322 363 L 329 366 L 335 364 Q 340 362 338 353 Q 336 346 326 348 Z M 344 348 L 341 351 L 342 362 L 342 364 L 342 365 L 346 365 L 347 361 L 347 353 L 351 353 Q 353 352 352 348 L 347 349 L 344 348 Z M 371 348 L 367 353 L 368 356 L 373 359 Q 376 358 375 361 L 368 360 L 367 363 Q 370 366 378 365 Q 381 363 381 359 L 376 354 Q 372 355 373 352 L 379 353 L 380 351 Q 378 346 371 348 Z " /><path fill="rgb(0,0,0)" stroke="rgb(0,0,0)" stroke-width="1" opacity="0" d="M 269 347 L 274 348 Q 276.1 354.4 269 352 L 269 347 Z " /><path fill="rgb(0,0,0)" stroke="rgb(0,0,0)" stroke-width="1" opacity="0" d="M 290.5 352 L 294 353.5 L 289.5 354 L 290.5 352 Z " /><path fill="rgb(0,0,0)" stroke="rgb(0,0,0)" stroke-width="1" opacity="0" d="M 214.5 353 Q 219.9 351.1 219 354.5 L 220 357.5 L 219 360 L 215.5 361 L 213 360 Q 211.5 354.6 214.5 353 Z " /><path fill="rgb(0,0,0)" stroke="rgb(0,0,0)" stroke-width="1" opacity="0" d="M 308 353 L 313 353 L 313 360 L 309.5 361 Q 306.3 359.1 308 353 Z " /><path fill="rgb(0,0,0)" stroke="rgb(0,0,0)" stroke-width="1" opacity="0" d="M 327 353 L 332 353 L 332 354.5 L 333 357.5 L 332 360 L 328.5 361 Q 325.3 360.3 326 355.5 L 327 353 Z " /><path fill="rgb(0,0,0)" stroke="rgb(0,0,0)" stroke-width="1" opacity="0" d="M 133.5 358 Q 136.8 356.9 136 359.5 L 132.5 361 L 131.5 359 L 133.5 358 Z " /><path fill="rgb(162,200,209)" stroke="rgb(162,200,209)" stroke-width="1" opacity="0.1450980392156863" d="M 300.5 136 Q 313.1 134.4 321 137.5 L 315.5 138 L 314.5 137 L 301.5 137 L 296.5 138 L 296.5 137 L 300.5 136 Z " /><path fill="rgb(162,200,209)" stroke="rgb(162,200,209)" stroke-width="1" opacity="0.1450980392156863" d="M 291.5 138 L 294 138.5 Q 267.9 144.4 254 162.5 L 241 184.5 L 237.5 198 L 237 194.5 L 244 175.5 Q 250.3 163.8 259.5 155 Q 272.2 143.2 291.5 138 Z " /><path fill="rgb(162,200,209)" stroke="rgb(162,200,209)" stroke-width="1" opacity="0.1450980392156863" d="M 323.5 138 L 334.5 141 L 349 149 L 348.5 151 L 340.5 145 L 331.5 141 L 325.5 140 L 323.5 138 Z " /><path fill="rgb(162,200,209)" stroke="rgb(162,200,209)" stroke-width="1" opacity="0.1450980392156863" d="M 350.5 151 L 360 158 L 370 171.5 L 375 182.5 L 374 182.5 Q 367.3 165.7 354.5 155 L 350.5 151 Z " /><path fill="rgb(162,200,209)" stroke="rgb(162,200,209)" stroke-width="1" opacity="0.1450980392156863" d="M 295.5 163 L 308.5 164 L 313 165.5 L 309.5 166 L 308.5 165 L 295.5 164 Q 294 166.5 288.5 165 L 288.5 164 Q 294 165.5 295.5 163 Z " /><path fill="rgb(162,200,209)" stroke="rgb(162,200,209)" stroke-width="1" opacity="0.1450980392156863" d="M 284.5 165 L 287 165.5 L 284.5 166 L 284.5 165 Z " /><path fill="rgb(162,200,209)" stroke="rgb(162,200,209)" stroke-width="1" opacity="0.1450980392156863" d="M 280.5 166 L 283 166.5 L 278.5 168 L 278.5 167 L 280.5 166 Z " /><path fill="rgb(162,200,209)" stroke="rgb(162,200,209)" stroke-width="1" opacity="0.1450980392156863" d="M 314.5 166 Q 328.2 169.8 336 179.5 L 344 192.5 L 345 203.5 L 344 203.5 L 343 192.5 L 334 178 L 322.5 170 L 314.5 167 L 314.5 166 Z " /><path fill="rgb(162,200,209)" stroke="rgb(162,200,209)" stroke-width="1" opacity="0.1450980392156863" d="M 276.5 168 L 275.5 170 Q 264 174.5 257 183.5 L 239.5 209 L 239 207.5 Q 249.2 187.8 265.5 174 L 276.5 168 Z " /><path fill="rgb(162,200,209)" stroke="rgb(162,200,209)" stroke-width="1" opacity="0.1450980392156863" d="M 100.5 171 L 213.5 171 L 215 172.5 L 215 209.5 L 213.5 211 L 100.5 211 L 99 209.5 L 99 172.5 L 100.5 171 Z M 102 172 L 100 174 L 100 210 L 101 210 L 214 210 L 214 172 L 102 172 Z " /><path fill="rgb(162,200,209)" stroke="rgb(162,200,209)" stroke-width="1" opacity="0.1450980392156863" d="M 375.5 184 L 379 193.5 L 379 198.5 L 378 198.5 L 378 193.5 L 375.5 184 Z " /><path fill="rgb(162,200,209)" stroke="rgb(162,200,209)" stroke-width="1" opacity="0.1450980392156863" d="M 277.5 192 L 280 192.5 L 277.5 193 L 277.5 192 Z " /><path fill="rgb(162,200,209)" stroke="rgb(162,200,209)" stroke-width="1" opacity="0.1450980392156863" d="M 318.5 192 L 329 205.5 L 328 205.5 L 318.5 192 Z " /><path fill="rgb(162,200,209)" stroke="rgb(162,200,209)" stroke-width="1" opacity="0.1450980392156863" d="M 270.5 194 L 272 194.5 Q 257.5 199.5 249 210.5 L 237.5 227 L 239 224.5 Q 245.6 210.1 257.5 201 L 270.5 194 Z " /><path fill="rgb(162,200,209)" stroke="rgb(162,200,209)" stroke-width="1" opacity="0.1450980392156863" d="M 236.5 199 L 237 206.5 Q 234.7 207.7 236 212.5 L 237 212.5 L 238.5 210 L 239 211.5 L 235 214 L 236.5 199 Z " /><path fill="rgb(162,200,209)" stroke="rgb(162,200,209)" stroke-width="1" opacity="0.1450980392156863" d="M 379.5 201 L 381 212.5 L 379.5 220 L 379 213.5 L 380 208.5 Q 377.2 206.7 379.5 201 Z " /><path fill="rgb(162,200,209)" stroke="rgb(162,200,209)" stroke-width="1" opacity="0.1450980392156863" d="M 344.5 205 L 345 211.5 Q 342.4 224.4 333.5 231 L 329.5 233 L 330.5 231 L 335 229 L 341 220.5 Q 344.4 214.4 344.5 205 Z " /><path fill="rgb(162,200,209)" stroke="rgb(162,200,209)" stroke-width="1" opacity="0.1450980392156863" d="M 298.5 209 L 301 209.5 L 294.5 211 L 294.5 210 L 298.5 209 Z " /><path fill="rgb(162,200,209)" stroke="rgb(162,200,209)" stroke-width="1" opacity="0.1450980392156863" d="M 292.5 211 L 291.5 213 L 290 212.5 L 292.5 211 Z " /><path fill="rgb(162,200,209)" stroke="rgb(162,200,209)" stroke-width="1" opacity="0.1450980392156863" d="M 288.5 213 L 287.5 215 L 278.5 222 L 278 220 L 280 220 Q 278.9 217.3 281.5 218 L 288.5 213 Z " /><path fill="rgb(162,200,209)" stroke="rgb(162,200,209)" stroke-width="1" opacity="0.1450980392156863" d="M 141.5 214 L 178.5 214 L 180 215.5 L 180 276.5 L 185 286 L 194.5 292 L 201 293.5 L 197.5 294 Q 188.3 291.2 183 284.5 L 179 276.5 L 179 216.5 L 177.5 215 L 142.5 215 L 140 216 L 139.5 281 L 139 215 L 141.5 214 Z " /><path fill="rgb(162,200,209)" stroke="rgb(162,200,209)" stroke-width="1" opacity="0.1450980392156863" d="M 378.5 221 L 379 226.5 L 377.5 229 L 377 226.5 L 378.5 221 Z " /><path fill="rgb(162,200,209)" stroke="rgb(162,200,209)" stroke-width="1" opacity="0.1450980392156863" d="M 276.5 222 L 277 223.5 L 269.5 234 L 270 232.5 L 276.5 222 Z " /><path fill="rgb(162,200,209)" stroke="rgb(162,200,209)" stroke-width="1" opacity="0.1450980392156863" d="M 236.5 228 L 237 229.5 L 233.5 234 L 234 232.5 L 236.5 228 Z " /><path fill="rgb(162,200,209)" stroke="rgb(162,200,209)" stroke-width="1" opacity="0.1450980392156863" d="M 376.5 230 L 377 232.5 L 375 233.5 L 376.5 230 Z " /><path fill="rgb(162,200,209)" stroke="rgb(162,200,209)" stroke-width="1" opacity="0.1450980392156863" d="M 326.5 233 L 328 233.5 Q 326.3 235.8 321.5 235 L 321.5 234 L 326.5 233 Z " /><path fill="rgb(162,200,209)" stroke="rgb(162,200,209)" stroke-width="1" opacity="0.1450980392156863" d="M 231 235 L 233 235.5 L 208 273.5 L 201.5 281 L 204 277.5 L 223 249.5 L 223 247.5 L 231 235 Z " /><path fill="rgb(162,200,209)" stroke="rgb(162,200,209)" stroke-width="1" opacity="0.1450980392156863" d="M 268.5 235 L 267 237.5 L 261.5 246 L 262 244.5 L 268.5 235 Z " /><path fill="rgb(162,200,209)" stroke="rgb(162,200,209)" stroke-width="1" opacity="0.1450980392156863" d="M 293.5 235 L 298 235.5 L 284.5 239 L 268 250 L 263.5 256 L 265 253.5 L 271.5 246 Q 280.3 238.3 293.5 235 Z " /><path fill="rgb(162,200,209)" stroke="rgb(162,200,209)" stroke-width="1" opacity="0.1450980392156863" d="M 374.5 235 L 375 236.5 Q 368.9 250.4 357.5 259 Q 348.1 266.6 333.5 269 L 333.5 268 L 336.5 268 L 349.5 263 L 366 249.5 L 374.5 235 Z " /><path fill="rgb(162,200,209)" stroke="rgb(162,200,209)" stroke-width="1" opacity="0.1450980392156863" d="M 260.5 247 L 260 248.5 Q 260.8 250.8 258.5 250 L 260.5 247 Z " /><path fill="rgb(162,200,209)" stroke="rgb(162,200,209)" stroke-width="1" opacity="0.1450980392156863" d="M 257.5 251 L 258 252.5 L 245 272.5 L 235.5 282 L 227.5 286 L 227.5 285 Q 237.5 281.5 243 273.5 L 257.5 251 Z " /><path fill="rgb(162,200,209)" stroke="rgb(162,200,209)" stroke-width="1" opacity="0.1450980392156863" d="M 261 257 L 263 257.5 Q 254.5 273 241.5 284 L 227.5 291 L 227.5 290 Q 241.4 284.9 250 274.5 L 261 257 Z " /><path fill="rgb(162,200,209)" stroke="rgb(162,200,209)" stroke-width="1" opacity="0.1450980392156863" d="M 325.5 269 L 331 269.5 L 325.5 271 L 284.5 271 L 273 280.5 L 269 288 L 267 287.5 L 279.5 273 L 284.5 270 L 324.5 270 L 325.5 269 Z " /><path fill="rgb(162,200,209)" stroke="rgb(162,200,209)" stroke-width="1" opacity="0.1450980392156863" d="M 295.5 275 L 328 275.5 L 295.5 276 L 295.5 275 Z " /><path fill="rgb(162,200,209)" stroke="rgb(162,200,209)" stroke-width="1" opacity="0.1450980392156863" d="M 293.5 276 L 308 294.5 L 307 294.5 L 293.5 276 Z " /><path fill="rgb(162,200,209)" stroke="rgb(162,200,209)" stroke-width="1" opacity="0.1450980392156863" d="M 331.5 276 L 338 285 Q 340.7 283.9 340 286.5 L 349 297.5 L 345 294.5 L 331.5 276 Z " /><path fill="rgb(162,200,209)" stroke="rgb(162,200,209)" stroke-width="1" opacity="0.1450980392156863" d="M 199.5 281 L 197.5 284 L 195 285.5 L 201 287.5 L 197.5 288 L 194 287 L 196.5 283 L 199.5 281 Z " /><path fill="rgb(162,200,209)" stroke="rgb(162,200,209)" stroke-width="1" opacity="0.1450980392156863" d="M 140.5 282 Q 144.4 305.6 160.5 317 L 170 322.5 L 168.5 323 L 153 311.5 L 151 308.5 L 143 296.5 L 140 285.5 L 140.5 282 Z " /><path fill="rgb(162,200,209)" stroke="rgb(162,200,209)" stroke-width="1" opacity="0.1450980392156863" d="M 224.5 286 L 226 286.5 L 221.5 288 L 221.5 287 L 224.5 286 Z " /><path fill="rgb(162,200,209)" stroke="rgb(162,200,209)" stroke-width="1" opacity="0.1450980392156863" d="M 204.5 288 L 219 288.5 L 204.5 289 L 204.5 288 Z " /><path fill="rgb(162,200,209)" stroke="rgb(162,200,209)" stroke-width="1" opacity="0.1450980392156863" d="M 266.5 289 L 265 291.5 Q 260.8 300.3 253.5 306 L 250.5 308 Q 237.3 322.3 214.5 327 L 214.5 326 Q 226.3 324.3 234.5 319 Q 250 310 261 296.5 L 266.5 289 Z " /><path fill="rgb(162,200,209)" stroke="rgb(162,200,209)" stroke-width="1" opacity="0.1450980392156863" d="M 223.5 291 L 226 291.5 L 218.5 294 L 212.5 294 L 212.5 293 Q 219.9 293.9 223.5 291 Z " /><path fill="rgb(162,200,209)" stroke="rgb(162,200,209)" stroke-width="1" opacity="0.1450980392156863" d="M 203.5 294 L 210 294.5 L 203.5 295 L 203.5 294 Z " /><path fill="rgb(162,200,209)" stroke="rgb(162,200,209)" stroke-width="1" opacity="0.1450980392156863" d="M 309.5 296 L 317 304.5 L 311 299.5 L 309.5 296 Z " /><path fill="rgb(162,200,209)" stroke="rgb(162,200,209)" stroke-width="1" opacity="0.1450980392156863" d="M 349.5 299 L 352.5 303 L 349.5 299 Z " /><path fill="rgb(162,200,209)" stroke="rgb(162,200,209)" stroke-width="1" opacity="0.1450980392156863" d="M 353.5 304 Q 355.8 303.3 355 305.5 L 357 309 Q 359.7 307.9 359 310.5 L 365 318.5 L 364 318.5 L 353.5 304 Z " /><path fill="rgb(162,200,209)" stroke="rgb(162,200,209)" stroke-width="1" opacity="0.1450980392156863" d="M 318.5 306 L 333 324.5 L 332 324.5 L 318 307.5 L 318.5 306 Z " /><path fill="rgb(162,200,209)" stroke="rgb(162,200,209)" stroke-width="1" opacity="0.1450980392156863" d="M 366.5 319 L 371 324.5 L 371 327 L 334.5 327 L 334 325.5 L 335.5 326 L 370 325.5 L 366 320.5 L 366.5 319 Z " /><path fill="rgb(162,200,209)" stroke="rgb(162,200,209)" stroke-width="1" opacity="0.1450980392156863" d="M 171.5 323 L 182 326.5 L 178.5 327 L 171.5 324 L 171.5 323 Z " /><path fill="rgb(162,200,209)" stroke="rgb(162,200,209)" stroke-width="1" opacity="0.1450980392156863" d="M 183.5 327 L 188.5 328 L 206.5 328 Q 207.7 325.8 212.5 327 L 212.5 328 Q 207.7 326.8 206.5 329 L 187.5 329 L 183.5 328 L 183.5 327 Z " /><path fill="rgb(162,200,209)" stroke="rgb(162,200,209)" stroke-width="1" opacity="0.1450980392156863" d="M 162.5 341 L 164 341.5 L 162 342 L 162 363.5 L 165 364 L 165 359 L 166.5 359 L 171.5 364 L 174.5 364 L 173 361.5 L 170 355.5 L 171.5 353 L 172 354.5 L 171 356.5 L 176 362.5 L 176 365 L 171.5 365 L 166.5 360 L 166 365 L 161 364.5 L 161 342.5 L 162.5 341 Z " /><path fill="rgb(162,200,209)" stroke="rgb(162,200,209)" stroke-width="1" opacity="0.1450980392156863" d="M 165.5 341 L 166.5 353 L 171.5 348 L 176 348 L 175.5 351 L 175 349 L 171.5 349 L 165.5 355 L 165.5 341 Z " /><path fill="rgb(162,200,209)" stroke="rgb(162,200,209)" stroke-width="1" opacity="0.1450980392156863" d="M 187.5 341 L 189 341.5 L 185.5 344 L 187.5 341 Z " /><path fill="rgb(162,200,209)" stroke="rgb(162,200,209)" stroke-width="1" opacity="0.1450980392156863" d="M 192.5 341 L 195 342.5 L 193.5 346 L 189 345.5 L 194 345 Q 195.5 341.2 192.5 342 L 192.5 341 Z " /><path fill="rgb(162,200,209)" stroke="rgb(162,200,209)" stroke-width="1" opacity="0.1450980392156863" d="M 198.5 341 L 200 341.5 L 198 342 L 198 361.5 L 199 364 L 205 365 Q 206.5 361.2 203.5 362 L 202 360.5 L 202 341.5 L 203 341.5 L 203 360.5 L 204.5 361 L 206 364.5 Q 205.3 366.8 201.5 366 L 198 363.5 L 197 361.5 L 197 342.5 L 198.5 341 Z " /><path fill="rgb(162,200,209)" stroke="rgb(162,200,209)" stroke-width="1" opacity="0.1450980392156863" d="M 126.5 343 L 127 346.5 L 126 346.5 L 126.5 343 Z " /><path fill="rgb(162,200,209)" stroke="rgb(162,200,209)" stroke-width="1" opacity="0.1450980392156863" d="M 273.5 343 L 277 344.5 L 275.5 344 Q 272.5 344.5 273.5 343 Z " /><path fill="rgb(162,200,209)" stroke="rgb(162,200,209)" stroke-width="1" opacity="0.1450980392156863" d="M 358.5 344 Q 363.1 342.8 361 348 L 365 348 L 365 353 L 361 353 L 361 359.5 Q 362.2 362 366 361 L 364.5 365 Q 358.4 365.8 356 364 L 356.5 362 Q 358.4 365.8 365 364 Q 366.3 361 362.5 362 L 360 361 L 360 352 Q 365.6 353.9 364 349 L 360 347.5 Q 361.1 344.2 358.5 345 L 358.5 344 Z " /><path fill="rgb(162,200,209)" stroke="rgb(162,200,209)" stroke-width="1" opacity="0.1450980392156863" d="M 184.5 345 L 185 349 L 182.5 350 L 182 348 Q 185.1 349.1 184.5 345 Z " /><path fill="rgb(162,200,209)" stroke="rgb(162,200,209)" stroke-width="1" opacity="0.1450980392156863" d="M 278.5 346 L 280 351.5 L 278.5 354 L 278 352.5 L 279 348.5 L 278.5 346 Z " /><path fill="rgb(162,200,209)" stroke="rgb(162,200,209)" stroke-width="1" opacity="0.1450980392156863" d="M 115.5 347 L 116 364 L 120 364.5 L 115 365 L 115.5 347 Z " /><path fill="rgb(162,200,209)" stroke="rgb(162,200,209)" stroke-width="1" opacity="0.1450980392156863" d="M 268.5 347 L 269 352 L 274 352 L 274 349.5 L 275 349.5 L 273.5 353 L 268 353 L 268.5 347 Z " /><path fill="rgb(162,200,209)" stroke="rgb(162,200,209)" stroke-width="1" opacity="0.1450980392156863" d="M 129.5 348 Q 138 346 140 350.5 L 137.5 349 L 129.5 349 L 128.5 350 L 129.5 348 Z " /><path fill="rgb(162,200,209)" stroke="rgb(162,200,209)" stroke-width="1" opacity="0.1450980392156863" d="M 147.5 348 L 150 348.5 L 145.5 351 L 147.5 348 Z " /><path fill="rgb(162,200,209)" stroke="rgb(162,200,209)" stroke-width="1" opacity="0.1450980392156863" d="M 151.5 348 Q 156.3 347.3 157 350.5 L 155.5 353 L 156 351.5 L 154.5 349 Q 150.5 349.8 151.5 348 Z " /><path fill="rgb(162,200,209)" stroke="rgb(162,200,209)" stroke-width="1" opacity="0.1450980392156863" d="M 189.5 348 L 193 348.5 L 189.5 349 L 189.5 348 Z " /><path fill="rgb(162,200,209)" stroke="rgb(162,200,209)" stroke-width="1" opacity="0.1450980392156863" d="M 212.5 348 Q 221.5 346.5 224 351.5 L 223.5 353 L 221.5 350 L 212.5 349 L 208.5 355 L 208 352.5 L 209 350 L 212.5 348 Z " /><path fill="rgb(162,200,209)" stroke="rgb(162,200,209)" stroke-width="1" opacity="0.1450980392156863" d="M 227.5 348 Q 231.9 346.5 231 349.5 L 232 353.5 L 231 353.5 Q 231.8 349.8 229.5 349 Q 226.2 347.9 227 350.5 L 226 350.5 L 227.5 348 Z " /><path fill="rgb(162,200,209)" stroke="rgb(162,200,209)" stroke-width="1" opacity="0.1450980392156863" d="M 237.5 348 L 241 349.5 L 240.5 351 L 237.5 349 L 236 349.5 L 237.5 348 Z " /><path fill="rgb(162,200,209)" stroke="rgb(162,200,209)" stroke-width="1" opacity="0.1450980392156863" d="M 246.5 348 L 250 348.5 L 246.5 349 L 246.5 348 Z " /><path fill="rgb(162,200,209)" stroke="rgb(162,200,209)" stroke-width="1" opacity="0.1450980392156863" d="M 287.5 348 Q 297.3 346.3 299 352.5 L 298.5 355 L 294.5 349 Q 285.8 347.3 284 352.5 L 283.5 356 L 283 352.5 L 287.5 348 Z " /><path fill="rgb(162,200,209)" stroke="rgb(162,200,209)" stroke-width="1" opacity="0.1450980392156863" d="M 304.5 348 L 306.5 349 L 309.5 348 L 309.5 349 L 306.5 350 L 304.5 348 Z " /><path fill="rgb(162,200,209)" stroke="rgb(162,200,209)" stroke-width="1" opacity="0.1450980392156863" d="M 311.5 348 Q 317.3 347.3 318 351.5 L 317.5 353 L 314.5 349 Q 310.5 349.8 311.5 348 Z " /><path fill="rgb(162,200,209)" stroke="rgb(162,200,209)" stroke-width="1" opacity="0.1450980392156863" d="M 325.5 348 Q 336 346 338 352.5 Q 340 362 334.5 364 L 337 360.5 Q 338.5 351.5 333.5 349 Q 324 347 322 352.5 L 320.5 358 L 320 355.5 L 322 350 L 325.5 348 Z " /><path fill="rgb(162,200,209)" stroke="rgb(162,200,209)" stroke-width="1" opacity="0.1450980392156863" d="M 343.5 348 L 346.5 349 L 352 348 Q 353 351.8 350.5 353 L 351 351.5 Q 352.3 347.3 347.5 349 L 345.5 350 L 343.5 349 L 342 350.5 L 341.5 359 L 341 350.5 L 343.5 348 Z " /><path fill="rgb(162,200,209)" stroke="rgb(162,200,209)" stroke-width="1" opacity="0.1450980392156863" d="M 370.5 348 Q 378.3 346.3 380 350.5 L 378.5 353 L 379 351.5 L 377.5 349 Q 370.8 347.3 369 350.5 L 368 353.5 L 370.5 357 L 376 359.5 L 374.5 362 L 373 361.5 L 375 361 Q 376.3 358 372.5 359 L 368 355.5 L 367 352.5 L 370.5 348 Z " /><path fill="rgb(162,200,209)" stroke="rgb(162,200,209)" stroke-width="1" opacity="0.1450980392156863" d="M 245.5 350 L 246 351.5 L 243.5 358 L 241 352.5 L 242 352.5 L 243.5 356 L 245.5 350 Z " /><path fill="rgb(162,200,209)" stroke="rgb(162,200,209)" stroke-width="1" opacity="0.1450980392156863" d="M 302.5 350 L 303 370 L 306.5 369 L 307 371 Q 303.2 372 302 369.5 L 302.5 350 Z " /><path fill="rgb(162,200,209)" stroke="rgb(162,200,209)" stroke-width="1" opacity="0.1450980392156863" d="M 128.5 351 L 132.5 352 L 134.5 351 L 135.5 353 L 133.5 352 L 128 353 L 128.5 351 Z " /><path fill="rgb(162,200,209)" stroke="rgb(162,200,209)" stroke-width="1" opacity="0.1450980392156863" d="M 182.5 351 Q 186.5 352.5 185 359.5 L 184 359.5 L 184 353.5 L 182 353 L 182.5 351 Z " /><path fill="rgb(162,200,209)" stroke="rgb(162,200,209)" stroke-width="1" opacity="0.1450980392156863" d="M 192.5 351 L 193 353 L 189 353 L 189 365 L 184 365 L 184.5 363 L 188 364 L 188 352.5 L 191.5 352 L 192.5 351 Z " /><path fill="rgb(162,200,209)" stroke="rgb(162,200,209)" stroke-width="1" opacity="0.1450980392156863" d="M 249.5 351 L 250 353.5 L 249 353.5 L 249.5 351 Z " /><path fill="rgb(162,200,209)" stroke="rgb(162,200,209)" stroke-width="1" opacity="0.1450980392156863" d="M 290.5 351 L 294 352.5 L 292.5 353 L 290.5 352 L 289.5 354 L 295 354.5 L 288 355 L 290.5 351 Z " /><path fill="rgb(162,200,209)" stroke="rgb(162,200,209)" stroke-width="1" opacity="0.1450980392156863" d="M 373.5 351 L 377 352.5 L 375.5 353 L 373 352 L 372.5 354 L 372 352.5 L 373.5 351 Z " /><path fill="rgb(162,200,209)" stroke="rgb(162,200,209)" stroke-width="1" opacity="0.1450980392156863" d="M 151.5 352 L 154 352.5 L 151.5 353 L 151.5 352 Z " /><path fill="rgb(162,200,209)" stroke="rgb(162,200,209)" stroke-width="1" opacity="0.1450980392156863" d="M 214.5 352 L 218 352.5 L 213 354.5 Q 211.8 360.6 214.5 360 L 216.5 361 L 219 360 L 219.5 358 L 220 359.5 L 214.5 362 Q 210.8 360.8 212 354.5 L 214.5 352 Z " /><path fill="rgb(162,200,209)" stroke="rgb(162,200,209)" stroke-width="1" opacity="0.1450980392156863" d="M 308.5 352 L 313 352.5 L 308 353 Q 306.3 359.1 309.5 361 L 313 360 L 313.5 354 L 314 359.5 L 309.5 362 Q 305.5 360.5 307 353.5 L 308.5 352 Z " /><path fill="rgb(162,200,209)" stroke="rgb(162,200,209)" stroke-width="1" opacity="0.1450980392156863" d="M 327.5 352 Q 332 351 333 353.5 L 334 357.5 L 330.5 362 Q 325.5 362.5 325 358.5 Q 324 353 327.5 352 Z M 327 353 L 326 356 Q 325 360 329 361 L 332 360 L 333 358 L 332 355 L 332 353 L 327 353 Z " /><path fill="rgb(162,200,209)" stroke="rgb(162,200,209)" stroke-width="1" opacity="0.1450980392156863" d="M 140.5 353 L 141 365 L 129 364.5 L 140 364 L 140.5 353 Z " /><path fill="rgb(162,200,209)" stroke="rgb(162,200,209)" stroke-width="1" opacity="0.1450980392156863" d="M 131.5 354 L 136 354.5 L 130.5 356 L 131.5 354 Z " /><path fill="rgb(162,200,209)" stroke="rgb(162,200,209)" stroke-width="1" opacity="0.1450980392156863" d="M 145.5 354 L 147.5 357 L 153 359.5 L 151.5 359 Q 146.8 358.8 145 355.5 L 145.5 354 Z " /><path fill="rgb(162,200,209)" stroke="rgb(162,200,209)" stroke-width="1" opacity="0.1450980392156863" d="M 151.5 354 L 154 355.5 L 152.5 355 L 151.5 354 Z " /><path fill="rgb(162,200,209)" stroke="rgb(162,200,209)" stroke-width="1" opacity="0.1450980392156863" d="M 346.5 354 L 347 360.5 L 346 360.5 L 346.5 354 Z " /><path fill="rgb(162,200,209)" stroke="rgb(162,200,209)" stroke-width="1" opacity="0.1450980392156863" d="M 374.5 354 L 377 355.5 L 375.5 355 L 374.5 354 Z " /><path fill="rgb(162,200,209)" stroke="rgb(162,200,209)" stroke-width="1" opacity="0.1450980392156863" d="M 232.5 355 L 235 355.5 L 233.5 359 L 232.5 355 Z " /><path fill="rgb(162,200,209)" stroke="rgb(162,200,209)" stroke-width="1" opacity="0.1450980392156863" d="M 238.5 355 L 241 364 L 245 364 L 245 362.5 L 248.5 355 L 249 356.5 L 244.5 365 Q 240.8 365.8 240 363.5 L 239 359 Q 236.3 360.1 237 357.5 L 238.5 355 Z " /><path fill="rgb(162,200,209)" stroke="rgb(162,200,209)" stroke-width="1" opacity="0.1450980392156863" d="M 276.5 355 L 280 362.5 L 278 361.5 L 275 356.5 L 276.5 355 Z " /><path fill="rgb(162,200,209)" stroke="rgb(162,200,209)" stroke-width="1" opacity="0.1450980392156863" d="M 127 356 L 129 356.5 L 127 360.5 L 128 363.5 L 127 363.5 L 126 359.5 L 127 356 Z " /><path fill="rgb(162,200,209)" stroke="rgb(162,200,209)" stroke-width="1" opacity="0.1450980392156863" d="M 155.5 356 Q 158.8 356.8 158 361.5 Q 157.3 365.8 151.5 365 L 151.5 364 Q 156.3 364.8 157 361.5 Q 157.4 356.8 155.5 356 Z " /><path fill="rgb(162,200,209)" stroke="rgb(162,200,209)" stroke-width="1" opacity="0.1450980392156863" d="M 378.5 356 Q 381.5 356.5 381 360.5 L 380 360.5 L 378.5 356 Z " /><path fill="rgb(162,200,209)" stroke="rgb(162,200,209)" stroke-width="1" opacity="0.1450980392156863" d="M 133.5 357 L 135 357.5 L 131.5 359 L 131.5 358 L 133.5 357 Z " /><path fill="rgb(162,200,209)" stroke="rgb(162,200,209)" stroke-width="1" opacity="0.1450980392156863" d="M 268.5 357 L 269 363.5 Q 268.3 365.8 264.5 365 L 264.5 364 L 268 364 L 268.5 357 Z " /><path fill="rgb(162,200,209)" stroke="rgb(162,200,209)" stroke-width="1" opacity="0.1450980392156863" d="M 271.5 357 L 275 364 L 280 364.5 L 275.5 365 L 271 358.5 L 271.5 357 Z " /><path fill="rgb(162,200,209)" stroke="rgb(162,200,209)" stroke-width="1" opacity="0.1450980392156863" d="M 136.5 358 L 137 359.5 Q 136.5 362.5 132.5 362 L 131.5 360 L 134.5 361 L 136.5 358 Z " /><path fill="rgb(162,200,209)" stroke="rgb(162,200,209)" stroke-width="1" opacity="0.1450980392156863" d="M 283.5 358 L 287.5 364 L 296 364.5 L 287.5 365 L 283 361.5 L 283.5 358 Z " /><path fill="rgb(162,200,209)" stroke="rgb(162,200,209)" stroke-width="1" opacity="0.1450980392156863" d="M 287.5 358 L 299 358.5 L 287.5 359 L 287.5 358 Z " /><path fill="rgb(162,200,209)" stroke="rgb(162,200,209)" stroke-width="1" opacity="0.1450980392156863" d="M 208.5 359 L 211 363.5 L 209 362.5 L 208.5 359 Z " /><path fill="rgb(162,200,209)" stroke="rgb(162,200,209)" stroke-width="1" opacity="0.1450980392156863" d="M 317.5 359 L 318 361.5 L 315 363.5 L 317.5 359 Z " /><path fill="rgb(162,200,209)" stroke="rgb(162,200,209)" stroke-width="1" opacity="0.1450980392156863" d="M 321.5 359 L 323 363 L 330 365.5 L 328.5 366 L 322 362.5 L 321.5 359 Z " /><path fill="rgb(162,200,209)" stroke="rgb(162,200,209)" stroke-width="1" opacity="0.1450980392156863" d="M 223.5 360 L 224 361.5 L 221 363.5 L 223.5 360 Z " /><path fill="rgb(162,200,209)" stroke="rgb(162,200,209)" stroke-width="1" opacity="0.1450980392156863" d="M 294.5 360 Q 297.8 358.9 297 361.5 L 298 363.5 L 297 363.5 L 295.5 361 L 290.5 362 L 290.5 361 L 294.5 360 Z " /><path fill="rgb(162,200,209)" stroke="rgb(162,200,209)" stroke-width="1" opacity="0.1450980392156863" d="M 368.5 360 L 369 361.5 L 368.5 364 Q 365.8 362.8 368 361.5 L 368.5 360 Z " /><path fill="rgb(162,200,209)" stroke="rgb(162,200,209)" stroke-width="1" opacity="0.1450980392156863" d="M 149.5 361 L 153 361.5 L 149.5 362 L 149.5 361 Z " /><path fill="rgb(162,200,209)" stroke="rgb(162,200,209)" stroke-width="1" opacity="0.1450980392156863" d="M 341.5 362 Q 344.1 361.3 343 364 L 345.5 364 L 345.5 365 Q 341.1 366.5 342 363.5 L 341.5 362 Z " /><path fill="rgb(162,200,209)" stroke="rgb(162,200,209)" stroke-width="1" opacity="0.1450980392156863" d="M 379.5 362 L 377.5 365 L 370 364.5 L 377.5 364 L 379.5 362 Z " /><path fill="rgb(162,200,209)" stroke="rgb(162,200,209)" stroke-width="1" opacity="0.1450980392156863" d="M 235.5 363 L 234.5 365 L 231 364.5 L 235.5 363 Z " /><path fill="rgb(162,200,209)" stroke="rgb(162,200,209)" stroke-width="1" opacity="0.1450980392156863" d="M 147.5 364 L 150 364.5 L 147.5 365 L 147.5 364 Z " /><path fill="rgb(162,200,209)" stroke="rgb(162,200,209)" stroke-width="1" opacity="0.1450980392156863" d="M 212.5 364 L 215 364.5 L 212.5 365 L 212.5 364 Z " /><path fill="rgb(162,200,209)" stroke="rgb(162,200,209)" stroke-width="1" opacity="0.1450980392156863" d="M 216.5 364 L 220 364.5 L 216.5 365 L 216.5 364 Z " /><path fill="rgb(162,200,209)" stroke="rgb(162,200,209)" stroke-width="1" opacity="0.1450980392156863" d="M 307.5 364 L 314 364.5 L 307.5 365 L 307.5 364 Z " /><path fill="rgb(47,208,202)" stroke="rgb(47,208,202)" stroke-width="1" opacity="0.996078431372549" d="M 299.5 138 L 322.5 139 L 336.5 144 L 348 151.5 Q 347.2 154.1 350.5 153 L 356 157 L 357.5 160 L 360 161.5 L 369 173.5 L 377 193.5 L 378 220.5 Q 376.5 229.5 372 235.5 L 372.5 237 L 370 238.5 L 370 240.5 Q 365.7 250.2 357.5 256 L 342.5 265 L 330.5 268 Q 324.2 266.3 322.5 269 L 283.5 269 L 272 278.5 L 256.5 300 Q 254.3 299.3 255 301.5 Q 245.3 311.8 232.5 319 Q 224.8 319.8 220.5 324 L 204.5 327 L 189.5 327 L 173.5 323 L 165.5 319 L 153 308.5 L 146 297.5 L 142 286.5 L 143 284.5 L 141 279.5 L 141 217.5 L 143.5 216 L 148.5 217 L 151.5 216 L 155.5 217 L 157.5 217 L 178 217 L 178 276.5 Q 180.8 286.3 188.5 291 L 197.5 295 L 207.5 295 L 208.5 296 L 209.5 295 L 218.5 295 L 227.5 293 L 240.5 286 L 250 277.5 Q 249.3 275.3 251.5 276 L 265 255.5 L 273.5 247 L 282 243 Q 280.8 240 284.5 241 L 287.5 239 L 300.5 236 L 325.5 236 L 335 232 L 335 230 L 337 230 Q 335.9 227.3 338.5 228 L 346 214.5 L 346 212.5 L 346 195.5 L 338 179 L 335 177.5 Q 335.8 175.3 333.5 176 L 319.5 166 L 308.5 163 L 293.5 162 L 283.5 164 L 269.5 170 L 255 182.5 Q 255.8 184.8 253.5 184 Q 244.3 193.8 238.5 207 L 238 199.5 L 241 191.5 L 241 187.5 L 247 174.5 Q 252.8 163.8 261.5 156 L 279.5 144 L 299.5 138 Z " /><path fill="rgb(47,208,202)" stroke="rgb(47,208,202)" stroke-width="1" opacity="0.996078431372549" d="M 102.5 173 L 108.5 174 L 109.5 173 L 213 173 L 213 207.5 L 211.5 209 L 101.5 209 L 101 208.5 L 101 174.5 L 102.5 173 Z " /><path fill="rgb(60,56,105)" stroke="rgb(60,56,105)" stroke-width="1" opacity="0.9294117647058824" d="M 280.5 192 L 317.5 192 L 323 197.5 L 328 204.5 L 329 208.5 L 326.5 209 L 298.5 209 L 280 218 L 280 220 L 278 220 L 278 222 Q 275.3 220.9 276 223.5 L 243 273.5 L 235.5 281 L 220.5 288 L 201.5 288 L 196 285.5 Q 195.3 283.3 197.5 284 L 205 277.5 L 237 229.5 L 237 227.5 L 249 210.5 L 255.5 204 Q 265 195 280.5 192 Z " /><path fill="rgb(60,56,105)" stroke="rgb(60,56,105)" stroke-width="1" opacity="0.9294117647058824" d="M 294.5 276 L 330.5 276 L 333 278.5 L 364 319 Q 366.7 317.9 366 320.5 L 370 325.5 L 335.5 326 L 333 325 L 319 306 Q 316.3 307.1 317 304.5 L 296 279.5 L 294.5 276 Z " /><path fill="rgb(60,56,105)" stroke="rgb(60,56,105)" stroke-width="1" opacity="0.9294117647058824" d="M 164.5 341 L 165.5 355 L 171.5 349 L 175 349 L 172.5 353 Q 170.3 352.3 171 354.5 L 170 356.5 L 175 363.5 L 171.5 364 L 165 359 L 165 364 L 162 364 L 162 342.5 L 163.5 342 L 164.5 341 Z " /><path fill="rgb(60,56,105)" stroke="rgb(60,56,105)" stroke-width="1" opacity="0.9294117647058824" d="M 189.5 341 L 194 342 L 194 345 L 189 345 L 189 349 L 193 349 L 193 350.5 Q 191.8 353 188 352 L 188 363.5 L 185.5 364 L 184 362.5 L 185 359.5 Q 186.5 352 182 350.5 L 185 349 Q 183.8 343.5 187.5 342 L 189.5 341 Z " /><path fill="rgb(60,56,105)" stroke="rgb(60,56,105)" stroke-width="1" opacity="0.9294117647058824" d="M 200.5 341 L 202 341.5 L 202 360.5 L 205 362 Q 206.8 366.5 201.5 365 L 199 364 L 198 361.5 L 198 342 L 200.5 341 Z " /><path fill="rgb(60,56,105)" stroke="rgb(60,56,105)" stroke-width="1" opacity="0.9294117647058824" d="M 110 343 L 125.5 343 L 126 347 L 120 347 L 120 363.5 L 116 364 L 116 347.5 L 115.5 347 L 110 347 L 110 343 Z " /><path fill="rgb(60,56,105)" stroke="rgb(60,56,105)" stroke-width="1" opacity="0.9294117647058824" d="M 265.5 343 Q 274.1 342.1 278 345 L 279 351.5 L 278 355 L 275 356.5 L 280 363.5 L 275 364 L 272 357 L 268 357 L 268 364 L 264 364 L 264 344.5 L 265.5 343 Z M 268 347 L 268 353 Q 273 354 275 352 L 274 349 L 274 347 L 268 347 Z " /><path fill="rgb(60,56,105)" stroke="rgb(60,56,105)" stroke-width="1" opacity="0.9294117647058824" d="M 357.5 344 L 360 345 L 361.5 349 Q 365.7 347.9 364 352 L 360 352 L 360 361 L 365 362 Q 366.1 365.5 358.5 364 L 356 361.5 L 356 352 Q 352.7 353.1 354 349 Q 357.3 350.3 356 345.5 L 357.5 344 Z " /><path fill="rgb(60,56,105)" stroke="rgb(60,56,105)" stroke-width="1" opacity="0.9294117647058824" d="M 150.5 348 L 156 350.5 L 154.5 353 L 149 352 Q 147.9 354.7 150.5 354 L 157 358.5 Q 157.8 363.3 154.5 364 L 150.5 365 L 145 362.5 L 146.5 360 Q 148.5 362.8 153 362 L 151.5 358 L 146 355.5 L 145 351.5 L 150.5 348 Z " /><path fill="rgb(60,56,105)" stroke="rgb(60,56,105)" stroke-width="1" opacity="0.9294117647058824" d="M 310.5 348 L 314.5 349 L 317 351.5 L 318 358.5 L 314.5 364 L 307 364 L 307 368.5 L 303 370 L 303 349.5 L 305.5 349 L 307.5 349 L 310.5 348 Z M 309 352 L 307 354 Q 306 361 310 362 L 314 360 Q 315 355 313 354 Q 314 350 309 352 Z " /><path fill="rgb(60,56,105)" stroke="rgb(60,56,105)" stroke-width="1" opacity="0.9294117647058824" d="M 129.5 349 Q 138 347 140 351.5 L 140 364 L 128 364 L 127 359.5 L 129.5 356 L 136 355 L 134.5 351 L 129.5 352 Q 126.5 350.5 129.5 349 Z M 134 357 L 133 358 Q 130 357 131 361 L 135 362 L 137 358 L 134 357 Z " /><path fill="rgb(60,56,105)" stroke="rgb(60,56,105)" stroke-width="1" opacity="0.9294117647058824" d="M 212.5 349 Q 220.5 347.5 223 351.5 L 224 359.5 L 220.5 364 L 215.5 365 L 210 362.5 L 208 355.5 L 212.5 349 Z M 215 352 L 212 355 Q 211 361 215 362 L 219 361 Q 222 359 220 353 L 215 352 Z " /><path fill="rgb(60,56,105)" stroke="rgb(60,56,105)" stroke-width="1" opacity="0.9294117647058824" d="M 227 349 L 231 350.5 L 233.5 359 L 237.5 349 L 241 351.5 Q 240.4 356.6 243.5 358 L 246 349 L 250 349 L 250 350.5 L 245 364 Q 239.8 366.1 241 361.5 L 238.5 355 L 234.5 364 Q 230.1 365.5 231 362.5 L 227 352.5 L 227 349 Z " /><path fill="rgb(60,56,105)" stroke="rgb(60,56,105)" stroke-width="1" opacity="0.9294117647058824" d="M 287.5 349 Q 296.3 347.3 298 352.5 L 299 358 L 287 358.5 L 288 361 L 294.5 362 Q 295.7 359.8 297 362.5 L 296.5 364 L 287.5 364 Q 283.4 362.1 283 356.5 L 284 352.5 L 287.5 349 Z M 291 351 L 288 355 L 295 355 L 294 352 L 291 351 Z " /><path fill="rgb(60,56,105)" stroke="rgb(60,56,105)" stroke-width="1" opacity="0.9294117647058824" d="M 325.5 349 Q 334 347 336 351.5 L 337 360.5 Q 334.9 364.9 328.5 365 L 323 363 L 321 355.5 L 325.5 349 Z M 328 352 Q 324 353 325 359 Q 326 363 331 362 L 334 358 L 333 354 Q 332 351 328 352 Z " /><path fill="rgb(60,56,105)" stroke="rgb(60,56,105)" stroke-width="1" opacity="0.9294117647058824" d="M 343.5 349 L 346.5 350 L 351 349 L 349.5 353 L 346 354.5 L 346 363.5 L 343 364 Q 340.6 360.1 342 350.5 L 343.5 349 Z " /><path fill="rgb(60,56,105)" stroke="rgb(60,56,105)" stroke-width="1" opacity="0.9294117647058824" d="M 370.5 349 Q 377.3 347.3 379 350.5 L 377.5 353 L 373.5 351 L 372 354 L 380 358.5 Q 380.8 363.3 377.5 364 L 369.5 364 L 368 362.5 L 369.5 360 L 374.5 362 L 376 359.5 L 369 355.5 L 368 352.5 L 370.5 349 Z " /><path fill="rgb(59,200,193)" stroke="rgb(59,200,193)" stroke-width="1" opacity="0.9254901960784314" d="M 301.5 137 L 322.5 138 L 336 143.5 L 334.5 144 L 322.5 139 L 301.5 138 L 301.5 137 Z " /><path fill="rgb(59,200,193)" stroke="rgb(59,200,193)" stroke-width="1" opacity="0.9254901960784314" d="M 294.5 138 L 299 138.5 L 291.5 140 L 291.5 139 L 294.5 138 Z " /><path fill="rgb(59,200,193)" stroke="rgb(59,200,193)" stroke-width="1" opacity="0.9254901960784314" d="M 287.5 140 L 290 140.5 Q 271.6 145.6 260 157.5 Q 249.2 167.7 243 182.5 L 238 199.5 L 238 206.5 L 239 206.5 Q 244.4 193.4 253.5 184 Q 255.8 184.8 255 182.5 Q 263.8 171.8 277.5 166 L 293.5 162 L 301.5 162 L 319.5 166 L 335 176 L 336.5 179 Q 338.8 178.3 338 180.5 L 345 191.5 Q 347.7 199.8 346 212.5 L 345 215.5 Q 343.3 223.3 338.5 228 L 333.5 232 L 325.5 236 L 300.5 236 L 282 241 Q 283.1 243.7 280.5 243 Q 270.8 247.3 265 255.5 L 251.5 276 Q 249.3 275.3 250 277.5 L 240.5 286 L 227.5 293 L 218.5 295 L 210.5 295 L 210.5 294 L 218.5 294 L 228.5 291 Q 243.3 285.3 252 273.5 L 268 250 L 280.5 241 L 289.5 237 L 298.5 235 L 325.5 235 Q 334.2 232.2 339 225.5 L 345 211.5 L 345 196.5 Q 340.9 182.1 330.5 174 Q 318.2 163.3 295.5 163 L 280.5 166 L 271.5 170 Q 260.5 176.5 253 186.5 L 236.5 212 L 236 207.5 L 239 190.5 L 247 172.5 Q 253.7 161.2 263.5 153 Q 273.4 144.4 287.5 140 Z " /><path fill="rgb(59,200,193)" stroke="rgb(59,200,193)" stroke-width="1" opacity="0.9254901960784314" d="M 337.5 144 Q 352.1 150.9 362 162.5 Q 370 171.5 375 183.5 L 378 193.5 L 380 212.5 L 379 213.5 L 378 225.5 L 375 234.5 Q 369.5 247.5 359.5 256 Q 349 265.5 332.5 269 Q 326.3 267.3 324.5 270 L 284.5 270 L 272 280.5 Q 262.3 297.8 247.5 310 Q 235.2 320.7 217.5 326 L 206.5 328 L 188.5 328 L 170.5 323 Q 158.6 317.4 151 307.5 Q 144.1 299.9 142 287.5 L 143 287.5 L 146 297.5 L 156.5 312 Q 163.5 319 173.5 323 L 189.5 327 L 204.5 327 L 220.5 324 Q 224.8 319.8 232.5 319 Q 245.3 311.8 255 301.5 Q 254.3 299.3 256.5 300 L 272 278.5 L 278.5 272 L 283.5 269 L 322.5 269 L 339.5 266 Q 356.5 260.5 366 247.5 L 371 239.5 Q 368.8 238.2 371.5 237 L 373 236.5 L 373 234.5 L 378 220.5 L 378 201.5 Q 375.2 199.8 377 193.5 L 372 179.5 L 358.5 160 L 356 158.5 Q 356.8 156.3 354.5 157 Q 353.1 152.3 348 153 L 346.5 150 L 338.5 146 L 337.5 144 Z " /><path fill="rgb(59,200,193)" stroke="rgb(59,200,193)" stroke-width="1" opacity="0.9254901960784314" d="M 101.5 172 L 214 172 L 214 210 L 100.5 210 L 100 209.5 L 100 173.5 L 101.5 172 Z M 103 173 L 101 175 L 101 209 L 102 209 L 212 209 L 213 208 L 213 173 L 110 173 L 109 174 L 103 173 Z " /><path fill="rgb(59,200,193)" stroke="rgb(59,200,193)" stroke-width="1" opacity="0.9254901960784314" d="M 142.5 215 L 177.5 215 L 179 216.5 L 179 276.5 Q 181.5 284.5 187.5 289 L 194 292.5 L 192.5 293 Q 185 290 181 283.5 L 178 276.5 L 178 217 L 157.5 217 L 156.5 216 L 154.5 216 L 150.5 217 L 148.5 217 L 142.5 216 L 141 217.5 L 141 279.5 L 143 286 Q 139.7 287.3 141 282.5 L 140 281.5 L 140 216 L 142.5 215 Z " /><path fill="rgb(59,200,193)" stroke="rgb(59,200,193)" stroke-width="1" opacity="0.9254901960784314" d="M 195.5 293 L 203 294.5 L 197.5 295 L 195.5 293 Z " /></svg>